<svg width="15" height="14" viewBox="0 0 15 14" fill="none" xmlns="http://www.w3.org/2000/svg">
<path fill-rule="evenodd" clip-rule="evenodd" d="M2.78252 0.290948C2.58375 0.105727 2.32084 0.00489185 2.04919 0.00968485C1.77753 0.0144778 1.51835 0.124525 1.32623 0.316643C1.13411 0.50876 1.02407 0.767947 1.01927 1.0396C1.01448 1.31125 1.11532 1.57416 1.30054 1.77294L6.50148 6.97388L1.30054 12.1748C1.19751 12.2708 1.11488 12.3866 1.05757 12.5152C1.00026 12.6438 0.969444 12.7827 0.96696 12.9235C0.964476 13.0643 0.990375 13.2041 1.04311 13.3347C1.09585 13.4652 1.17435 13.5838 1.27392 13.6834C1.37349 13.783 1.4921 13.8615 1.62266 13.9142C1.75323 13.967 1.89308 13.9929 2.03387 13.9904C2.17466 13.9879 2.31351 13.9571 2.44214 13.8998C2.57076 13.8425 2.68653 13.7598 2.78252 13.6568L7.98346 8.45586L13.1844 13.6568C13.2804 13.7598 13.3962 13.8425 13.5248 13.8998C13.6534 13.9571 13.7923 13.9879 13.9331 13.9904C14.0739 13.9929 14.2137 13.967 14.3443 13.9142C14.4748 13.8615 14.5934 13.783 14.693 13.6834C14.7926 13.5838 14.8711 13.4652 14.9238 13.3347C14.9766 13.2041 15.0025 13.0643 15 12.9235C14.9975 12.7827 14.9667 12.6438 14.9094 12.5152C14.852 12.3866 14.7694 12.2708 14.6664 12.1748L9.46545 6.97388L14.6664 1.77294C14.8516 1.57416 14.9524 1.31125 14.9477 1.0396C14.9429 0.767947 14.8328 0.50876 14.6407 0.316643C14.4486 0.124525 14.1894 0.0144778 13.9177 0.00968485C13.6461 0.00489185 13.3832 0.105727 13.1844 0.290948L7.98346 5.49189L2.78252 0.290948Z" fill="#008C95"/>
</svg>
