<svg width="25" height="15" viewBox="0 0 25 15" fill="none" xmlns="http://www.w3.org/2000/svg">
<path d="M24.4497 0.658927C24.0973 0.296186 23.6193 0.092409 23.1209 0.092409C22.6225 0.0924089 22.1446 0.296186 21.7921 0.658927L12.4887 10.2368L3.18519 0.658925C2.83071 0.306464 2.35595 0.111436 1.86316 0.115845C1.37036 0.120252 0.898961 0.323746 0.550489 0.682494C0.202016 1.04124 0.00435565 1.52654 7.16973e-05 2.03387C-0.00421034 2.5412 0.185231 3.02996 0.527597 3.39489L11.1599 14.3407C11.5123 14.7034 11.9903 14.9072 12.4887 14.9072C12.987 14.9072 13.465 14.7034 13.8175 14.3407L24.4497 3.3949C24.8021 3.03205 25 2.53998 25 2.02691C25 1.51384 24.8021 1.02178 24.4497 0.658927Z" fill="#008C95"/>
</svg>
