<svg width="135" height="26" viewBox="0 0 135 26" fill="none" xmlns="http://www.w3.org/2000/svg">
<g clip-path="url(#clip0_2036_6372)">
<g clip-path="url(#clip1_2036_6372)">
<path d="M25.4683 11.2705C25.4683 11.2705 26.0996 3.96583 26.1637 3.25066C26.1824 2.83485 26.1188 2.41946 25.9769 2.02923C25.835 1.63901 25.6174 1.28195 25.3373 0.979333C25.0574 0.676716 24.7204 0.434737 24.3467 0.267819C23.973 0.100901 23.5703 0.0124601 23.1625 0.00776783H5.09561C4.26269 -0.0511446 3.44051 0.226807 2.8068 0.781534C2.1731 1.33626 1.77878 2.12319 1.70908 2.97223C1.62884 3.82935 0.136207 21.4906 0.0238576 22.5059C-0.029512 22.9384 0.00689479 23.3775 0.130711 23.7947C0.254527 24.2117 0.462983 24.5977 0.742525 24.9272C1.02207 25.2567 1.36644 25.5226 1.75326 25.7074C2.14007 25.8922 2.56068 25.9919 2.98774 26H20.9689C23.3496 26 24.2752 24.7116 24.4785 22.7243C24.6016 21.5396 25.1686 14.3496 25.1686 14.3496H14.335L13.8642 19.9018H11.1143L12.2966 6.10593H15.0465L14.6132 11.2705H25.4683Z" fill="white"/>
<path d="M42.2239 2.24055C41.8387 3.37611 38.6768 13.4706 38.6768 13.4706L40.0838 0.00765706H29.2288L26.9551 25.9999H35.1352C37.1896 25.9999 37.8958 24.8098 38.2382 23.8544C38.6447 22.7189 41.6567 14.2021 41.6567 14.2021L40.5494 25.9999H51.4096L53.6459 0.00765706H45.1235C44.4668 0.0025447 43.8269 0.218556 43.3026 0.622232C42.7784 1.02591 42.3992 1.59472 42.2239 2.24055Z" fill="white"/>
<path d="M97.2324 0.0078125L96.2159 11.8547H93.4607L94.4773 0.0078125H83.6222C83.6222 0.0078125 82.5789 12.5644 82.4666 13.7655C82.3382 15.2123 83.1406 17.265 85.5482 17.265H95.7505L95.5259 19.8965H81.9423L81.4072 25.9947H103.016C104.482 25.9947 105.894 25.0174 106.087 22.9319C106.22 21.5998 108.093 0.0078125 108.093 0.0078125H97.2324Z" fill="white"/>
<path d="M110.821 0.0078125L108.596 25.9947H119.456L120.141 17.9529H130.691C132.558 17.9529 133.799 16.9811 133.997 14.7537C134.077 13.8911 134.934 4.03686 134.992 3.1688C135.121 1.2471 133.623 0.0078125 131.782 0.0078125H110.821ZM120.606 12.5644L121.141 6.11689H123.864L123.329 12.5644H120.606Z" fill="white"/>
<path d="M66.5237 8.74286L66.7537 6.10597H80.3532L80.8882 0.0078125H56.4122L54.1865 26H75.8593C77.2342 26 78.7268 25.1647 78.9194 22.9918C79.0638 21.354 79.7326 13.6345 79.8556 12.2314C80.0161 10.3588 78.8552 8.74286 76.5655 8.74286H66.5237ZM68.2783 20.5952H65.5071L66.0421 14.1477H68.8134L68.2783 20.5952Z" fill="white"/>
</g>
</g>
<defs>
<clipPath id="clip0_2036_6372">
<rect width="135" height="26" fill="white"/>
</clipPath>
<clipPath id="clip1_2036_6372">
<rect width="135" height="26" fill="white"/>
</clipPath>
</defs>
</svg>
